# xmcd
#
# Track frame offsets: 
#        150
#        23079
#        41931
#        73939
#        92936
#        115344
#        134384
#        159537
#        182000
#        198875
#        217711
#        246768
#        270171
#        289620
#        313172
#
# Disc length: 4438 seconds
#
# Revision: 2
# Processed by: cddbd v1.5.1PL2 Copyright (c) Steve Scherf et al.
# Submitted via: ExactAudioCopy v0.90b4
#
DISCID=d711540f
DTITLE=Joe Ely - Live At Antone's
DYEAR=2000
DGENRE=Country
TTITLE0=The Road Goes On Forever
TTITLE1=All Just to Get To You
TTITLE2=Gallo del Cielo
TTITLE3=Ranches And Rivers
TTITLE4=Workin' For The Man
TTITLE5=Me and Billy The Kid
TTITLE6=Up On The Ridge
TTITLE7=Rock Salt And Nails
TTITLE8=Nacho Mama
TTITLE9=Dallas
TTITLE10=Thousand Miles From Home
TTITLE11=Road Hawg
TTITLE12=Everybody Got Hammered
TTITLE13=My Eyes Got Lucky
TTITLE14=Oh Boy!
EXTD=
EXTT0=\t
EXTT1=
EXTT2=
EXTT3=
EXTT4=
EXTT5=
EXTT6=
EXTT7=
EXTT8=
EXTT9=
EXTT10=
EXTT11=
EXTT12=
EXTT13=
EXTT14=
PLAYORDER=
